<svg width="50" height="50" viewBox="0 0 50 50" fill="none" xmlns="http://www.w3.org/2000/svg">
<path d="M25.0028 18.5903C21.4557 18.5903 18.5945 21.4521 18.5945 25C18.5945 28.5479 21.4557 31.4097 25.0028 31.4097C28.5499 31.4097 31.411 28.5479 31.411 25C31.411 21.4521 28.5499 18.5903 25.0028 18.5903ZM25.0028 29.1671C22.7105 29.1671 20.8366 27.2983 20.8366 25C20.8366 22.7017 22.705 20.8329 25.0028 20.8329C27.3006 20.8329 29.169 22.7017 29.169 25C29.169 27.2983 27.295 29.1671 25.0028 29.1671ZM33.1679 18.3281C33.1679 19.1593 32.4986 19.8232 31.6732 19.8232C30.8422 19.8232 30.1785 19.1537 30.1785 18.3281C30.1785 17.5025 30.8477 16.8331 31.6732 16.8331C32.4986 16.8331 33.1679 17.5025 33.1679 18.3281ZM37.4122 19.8455C37.3173 17.8428 36.86 16.0688 35.3932 14.6073C33.932 13.1457 32.1584 12.6883 30.1562 12.5879C28.0926 12.4707 21.9074 12.4707 19.8438 12.5879C17.8472 12.6827 16.0736 13.1401 14.6068 14.6017C13.14 16.0633 12.6882 17.8372 12.5878 19.8399C12.4707 21.9039 12.4707 28.0905 12.5878 30.1545C12.6827 32.1572 13.14 33.9312 14.6068 35.3927C16.0736 36.8543 17.8416 37.3117 19.8438 37.4121C21.9074 37.5293 28.0926 37.5293 30.1562 37.4121C32.1584 37.3173 33.932 36.8599 35.3932 35.3927C36.8544 33.9312 37.3118 32.1572 37.4122 30.1545C37.5293 28.0905 37.5293 21.9095 37.4122 19.8455ZM34.7462 32.3692C34.3112 33.4626 33.469 34.3049 32.3703 34.7456C30.725 35.3983 26.821 35.2477 25.0028 35.2477C23.1846 35.2477 19.275 35.3927 17.6352 34.7456C16.5421 34.3105 15.6999 33.4681 15.2593 32.3692C14.6068 30.7235 14.7574 26.8186 14.7574 25C14.7574 23.1814 14.6124 19.2709 15.2593 17.6308C15.6944 16.5374 16.5365 15.6951 17.6352 15.2544C19.2805 14.6017 23.1846 14.7523 25.0028 14.7523C26.821 14.7523 30.7306 14.6073 32.3703 15.2544C33.4635 15.6895 34.3056 16.5319 34.7462 17.6308C35.3988 19.2765 35.2482 23.1814 35.2482 25C35.2482 26.8186 35.3988 30.7291 34.7462 32.3692Z" fill="white"/>
</svg>
