<svg width="100" height="33" viewBox="0 0 100 33" fill="none" xmlns="http://www.w3.org/2000/svg">
<path d="M37.4 16.39H45.47V12.95C45.47 5.89 42.4 2.52 39.02 0.98C37.74 0.39 35.65 0.08 33.6 0H28.15V32.79H37.4C41.95 32.79 45.64 29.12 45.64 24.59C45.64 20.06 41.95 16.4 37.4 16.4M6.5 26.5C6.5 31.49 0 32.11 0 32.11V32.8H23.71V0H0V0.69C0 0.69 6.5 1.31 6.5 6.3V26.5ZM71.63 32.79V0H67.37C64.97 0 62.3 0.31 60.76 1.01C57.38 2.55 54.31 5.93 54.31 13V32.79H71.63ZM99.89 32.79V32.1C99.89 32.1 93.39 31.48 93.39 26.49V6.29C93.39 1.31 99.89 0.69 99.89 0.69V0H89.13C86.74 0 84.06 0.31 82.52 1.01C79.14 2.55 76.07 5.93 76.07 13V32.79H99.9H99.89Z" fill="white"/>
</svg>
