<svg width="824" height="78" viewBox="0 0 824 78" fill="none" xmlns="http://www.w3.org/2000/svg">
<path d="M0 1.75459H31.8457C47.2103 1.75459 57.6837 9.67689 57.6837 20.3108C57.6837 29.0838 53.3774 34.9857 47.4761 36.8998C57.6837 39.0266 61.7774 47.0552 61.7774 55.7219C61.7774 68.1636 52.3141 76.0859 34.2381 76.0859H0V1.75459ZM29.4533 29.1902C34.3976 29.1902 37.747 27.5951 37.747 23.182C37.747 18.7689 33.8659 16.9611 28.709 16.9611H20.9469V29.137H29.4533V29.1902ZM31.5798 59.9223C37.1621 59.9223 40.9368 57.4765 40.9368 53.0634C40.9368 49.0225 37.5875 46.3108 31.7925 46.3108H20.9469V59.9223H31.5798ZM94.4737 1.75459H114.357L145.671 76.0859H124.033L118.451 61.6237H90.2737L84.7977 76.0859H63.1597L94.4737 1.80775V1.75459ZM112.337 44.5562L104.362 23.6605L96.3876 44.5562H112.337ZM152.742 1.70143H184.588C199.953 1.70143 210.426 9.62371 210.426 20.2577C210.426 29.0307 206.12 34.9325 200.218 36.8466C210.426 38.9734 214.52 47.002 214.52 55.6687C214.52 68.1104 205.056 76.0327 186.98 76.0327H152.795V1.75459L152.742 1.70143ZM182.196 29.0838C187.14 29.0838 190.489 27.4887 190.489 23.0756C190.489 18.6626 186.608 16.8548 181.451 16.8548H173.742V29.0307H182.249L182.196 29.0838ZM184.322 59.816C189.904 59.816 193.679 57.3701 193.679 52.9571C193.679 48.9162 190.33 46.2045 184.535 46.2045H173.689V59.816H184.322ZM241.208 48.1718L215.636 1.70143H238.763L252.001 25.681L265.239 1.70143H288.365L262.793 48.4908V75.9795H241.262V48.1186L241.208 48.1718ZM296.021 1.70143H312.928L335.948 39.3988L358.968 1.70143H375.875L375.981 76.0327H357.267V40.6748L335.948 73.8528L314.629 40.6748V76.0327H295.915L296.021 1.70143ZM492.465 34.9857V75.9795H473.432V1.70143H488.69L520.11 32.2208V1.70143H539.25V77.4151H536.911L492.465 35.0388V34.9857ZM641.273 18.8221H621.177V1.70143H681.146V18.8221H661.05V75.9795H641.273V18.8221ZM693.215 1.70143H749.25V18.6094H714.906V29.2965H743.828V46.4172H714.906V59.0716H749.25V75.9795H693.215V1.64825M824 75.9264L810.443 48.0654C816.504 44.5562 823.096 39.6115 823.096 26.9571C823.096 9.62372 810.921 1.64825 794.121 1.64825H763.02V75.9264H782.585V52.2127H790.347C790.719 52.2127 791.091 52.2127 791.516 52.2127L802.628 75.9795H824M782.638 18.7157H790.932C799.013 18.7157 803.213 20.5767 803.213 27.0102C803.213 32.593 799.119 35.3047 791.144 35.3047H782.638V18.7689V18.7157ZM418.885 57.5828C410.644 55.0307 405.062 47.4806 405.009 38.8671C405.009 30.2536 410.644 22.7035 418.885 20.1513V0.319005C399.958 3.19017 385.551 19.4069 385.551 38.8671C385.551 58.3272 399.958 74.5971 418.885 77.4151V57.5828ZM430.581 0.319005V20.1513C438.822 22.7035 444.404 30.2536 444.404 38.8671C444.404 47.4806 438.768 55.0307 430.581 57.5828V77.4151C449.401 74.6503 463.915 58.5399 463.915 38.8671C463.915 19.1943 449.401 3.137 430.581 0.319005ZM615.435 52.1595C615.435 56.9979 614.159 61.4642 611.607 65.5583C609.055 69.6524 605.44 72.7362 600.868 74.863C596.242 76.9898 590.447 78 583.43 78C571.149 78 562.589 75.5542 557.857 70.6094C553.126 65.6646 550.787 58.2208 550.149 50.6176H570.511C570.989 54.1268 571.893 56.7853 573.275 58.6462C575.561 61.6769 579.549 62.6871 583.855 62.6871C587.045 62.6871 590.713 61.6769 592.414 60.135C594.116 58.593 594.86 56.5726 594.86 54.499C594.86 52.4254 594.063 50.7771 592.414 49.2352C590.766 47.6932 586.939 46.2577 580.984 44.8753C571.149 42.589 563.014 40.4622 558.814 36.6871C554.614 32.8589 552.488 28.0205 552.488 22.1186C552.488 18.2372 553.551 14.5685 555.731 11.1125C557.911 7.65642 561.1 4.94477 565.46 2.97749C569.766 1.01021 575.721 0 583.27 0C592.521 0 599.539 1.80776 604.43 5.37013C609.268 8.93251 612.192 14.6748 613.096 22.4908H591.776C591.139 19.726 590.075 17.7055 588.48 16.3763C586.673 14.8343 584.227 14.09 581.037 14.0368C578.432 14.0368 576.465 14.6217 575.189 15.7382C573.913 16.7485 573.222 18.2904 573.222 19.9387C573.222 21.1616 573.754 22.2249 574.87 23.182C575.933 24.1922 578.432 25.0961 582.366 25.9468C592.149 28.1268 599.113 30.3599 603.366 32.593C607.62 34.8262 610.65 37.6442 612.617 40.9407C614.531 44.2372 615.488 47.9591 615.488 52.1063" fill="url(#paint0_linear_374_111)"/>
<defs>
<linearGradient id="paint0_linear_374_111" x1="0" y1="0" x2="824.055" y2="78.1449" gradientUnits="userSpaceOnUse">
<stop stop-color="#7C8082"/>
<stop offset="0.613688" stop-color="#F0EBEF"/>
<stop offset="1" stop-color="#A09C9D"/>
</linearGradient>
</defs>
</svg>
