<svg width="50" height="50" viewBox="0 0 50 50" fill="none" xmlns="http://www.w3.org/2000/svg">
<path d="M40.773 17.0477C40.3944 15.622 39.2788 14.4992 37.8624 14.1182C35.295 13.4258 25 13.4258 25 13.4258C25 13.4258 14.7052 13.4258 12.1377 14.1182C10.7213 14.4993 9.60569 15.622 9.22706 17.0477C8.53912 19.6318 8.53912 25.0232 8.53912 25.0232C8.53912 25.0232 8.53912 30.4147 9.22706 32.9988C9.60569 34.4245 10.7213 35.5005 12.1377 35.8815C14.7052 36.5739 25 36.5739 25 36.5739C25 36.5739 35.2949 36.5739 37.8624 35.8815C39.2788 35.5005 40.3944 34.4245 40.773 32.9988C41.461 30.4147 41.461 25.0232 41.461 25.0232C41.461 25.0232 41.461 19.6318 40.773 17.0477ZM21.633 29.9183V20.1282L30.2376 25.0234L21.633 29.9183Z" fill="white"/>
</svg>
